# xmcd
#
# Track frame offsets: 
#        150
#        28533
#        47948
#        77363
#        94495
#        115310
#        134168
#        159005
#
# Disc length: 2396 seconds
#
# Revision: 7
# Processed by: cddbd v1.5.2PL0 Copyright (c) Steve Scherf et al.
# Submitted via: ExactAudioCopyFreeDBPlugin 1.0
#
DISCID=62095a08
DTITLE=Aretha Franklin - Get It Right
DYEAR=1983
DGENRE=Soul
TTITLE0=Get It Right
TTITLE1=Pretender
TTITLE2=Every Girl (Wants My Guy)
TTITLE3=When You Love Me Like That
TTITLE4=I Wish It Would Rain
TTITLE5=Better Friends Than Lovers
TTITLE6=I Got Your Love
TTITLE7=Giving In
EXTD=Sean P. YEAR: 1983
EXTT0=
EXTT1=
EXTT2=
EXTT3=
EXTT4=
EXTT5=
EXTT6=
EXTT7=
PLAYORDER=
